<svg id="Layer_1" data-name="Layer 1" xmlns="http://www.w3.org/2000/svg" viewBox="0 0 229.02 225.39"><defs><style>.cls-1{fill:none;}</style></defs><title>razor</title><path class="cls-1" d="M71.85,137.27q0,4.15,1.47,6.08a4.79,4.79,0,0,0,4,1.94,6.13,6.13,0,0,0,5.57-3.54,18.67,18.67,0,0,0,1.95-8.29H72.38A12.57,12.57,0,0,0,71.85,137.27Z" transform="translate(-7.17 -14.7)"/><polygon class="cls-1" points="184.56 110.26 184.56 116.75 193.88 116.75 191.1 110.26 184.56 110.26"/><path class="cls-1" d="M80.92,128q-4.61.24-6.84,2.55a6.56,6.56,0,0,0-.73.92H84.89v-3.68Z" transform="translate(-7.17 -14.7)"/><path class="cls-1" d="M148,140.75q2,4.22,6.15,4.22c4.53,0,7.17-3.85,7.94-11.51H146.26A22.6,22.6,0,0,0,148,140.75Z" transform="translate(-7.17 -14.7)"/><path class="cls-1" d="M154.15,110.71a6.45,6.45,0,0,0-6.21,4.15Q146,119,146,127.27c0,1.12,0,2.18.09,3.19h16.13c.05-1,.09-2.06.09-3.19Q162.34,110.71,154.15,110.71Z" transform="translate(-7.17 -14.7)"/><path class="cls-1" d="M203.75,117.92q2.53-2.88,2.53-8.58T203.7,101c-1.72-1.72-4.44-2.57-8.14-2.57h-3.83V120.8h4.82A9.08,9.08,0,0,0,203.75,117.92Z" transform="translate(-7.17 -14.7)"/><path class="cls-1" d="M47.1,120.8V98.41H43.26c-3.7,0-6.41.85-8.13,2.57s-2.59,4.5-2.59,8.36.85,6.66,2.53,8.58a9.09,9.09,0,0,0,7.21,2.88Z" transform="translate(-7.17 -14.7)"/><polygon class="cls-1" points="33.39 110.26 30.62 116.75 39.93 116.75 39.93 110.26 33.39 110.26"/><rect x="39.93" y="118.75" width="3.45" height="13.98"/><path d="M40.56,124H47.1v6.49h3.44V95h-7q-7.51,0-11,3.55T29,109.2A18.17,18.17,0,0,0,30.92,118a11.72,11.72,0,0,0,6.37,5.17l-3.2,7.3h3.69Zm-5.49-6c-1.68-1.92-2.53-4.78-2.53-8.58s.86-6.65,2.59-8.36,4.43-2.57,8.13-2.57H47.1V120.8H42.28A9.09,9.09,0,0,1,35.07,117.92Z" transform="translate(-7.17 -14.7)"/><polygon points="19.93 132.73 23.8 132.73 29.77 118.75 26.05 118.75 19.93 132.73"/><path d="M82.9,141.75a6.13,6.13,0,0,1-5.57,3.54,4.79,4.79,0,0,1-4-1.94q-1.47-1.92-1.47-6.08a12.57,12.57,0,0,1,.53-3.81H68.79a14.25,14.25,0,0,0-.46,3.74,12.8,12.8,0,0,0,2.27,8,7.15,7.15,0,0,0,6,3q5.56,0,8.3-6H85l.42,5.34h2.74v-14H84.85A18.67,18.67,0,0,1,82.9,141.75Z" transform="translate(-7.17 -14.7)"/><path d="M74.08,129.54q2.23-2.31,6.84-2.55l4-.21v3.68h3.3v-10q0-7-2.07-9.93t-6.79-3A15.6,15.6,0,0,0,71,110l1.44,2.64a12.55,12.55,0,0,1,6.68-2.15A4.65,4.65,0,0,1,83.55,113q1.33,2.44,1.34,7.78v3.17l-4.11.21q-5.91.28-9.18,3.46a10.2,10.2,0,0,0-2.07,2.89h3.82A6.56,6.56,0,0,1,74.08,129.54Z" transform="translate(-7.17 -14.7)"/><polygon points="101.6 130.06 101.6 132.73 127.42 132.73 111.42 130.58 105.15 129.78 108.95 118.75 105.51 118.75 101.6 130.06"/><polygon points="116.36 96.29 116.36 93.58 113.04 93.58 91 96.54 112.85 96.54 106.2 115.75 109.64 115.75 116.36 96.29"/><path d="M146,127.27q0-8.26,1.91-12.41a6.45,6.45,0,0,1,6.21-4.15q8.19,0,8.19,16.56c0,1.13,0,2.18-.09,3.19h3.47c.06-1,.1-2.08.1-3.19q0-9.39-3.06-14.55t-8.54-5.17q-11.67,0-11.67,19.72c0,1.11,0,2.16.1,3.19h3.47C146.06,129.45,146,128.39,146,127.27Z" transform="translate(-7.17 -14.7)"/><path d="M154.15,145q-4.18,0-6.15-4.22a22.6,22.6,0,0,1-1.74-7.29H142.8a24,24,0,0,0,2.72,9.56,9.39,9.39,0,0,0,8.56,5.12,9.6,9.6,0,0,0,8.7-5.12,23.47,23.47,0,0,0,2.77-9.56h-3.46C161.32,141.12,158.68,145,154.15,145Z" transform="translate(-7.17 -14.7)"/><path d="M191.73,124h6.54l2.77,6.49h3.69l-3.19-7.3A11.7,11.7,0,0,0,207.9,118a18.05,18.05,0,0,0,1.9-8.79q0-7.07-3.48-10.62t-11-3.55h-7v35.43h3.45Zm0-25.56h3.83c3.7,0,6.42.85,8.14,2.57s2.58,4.5,2.58,8.36-.84,6.66-2.53,8.58a9.08,9.08,0,0,1-7.2,2.88h-4.82Z" transform="translate(-7.17 -14.7)"/><rect x="181.12" y="118.75" width="3.45" height="13.98"/><polygon points="200.7 132.73 204.57 132.73 198.45 118.75 194.73 118.75 200.7 132.73"/><path d="M9.17,129.21a112.51,112.51,0,1,1,225,0c0,8.44-.48,8.08-2.24,16l1.9,7.1A114.51,114.51,0,1,0,93,240.1l-4.92-5.54C38.71,222.7,9.17,182.21,9.17,129.21Z" transform="translate(-7.17 -14.7)"/></svg>